<svg width="128" height="128" viewBox="0 0 128 128" fill="none" xmlns="http://www.w3.org/2000/svg">
<g clip-path="url(#clip0_450_529)">
<g clip-path="url(#clip1_450_529)">
<path d="M24 0.5H104C116.979 0.5 127.5 11.0213 127.5 24V104C127.5 116.979 116.979 127.5 104 127.5H24C11.0213 127.5 0.5 116.979 0.5 104V24C0.5 11.0213 11.0213 0.5 24 0.5ZM28 81.5C22.7533 81.5 18.5 85.7534 18.5 91C18.5 96.2466 22.7533 100.5 28 100.5C33.2467 100.5 37.5 96.2466 37.5 91C37.5 85.7534 33.2467 81.5 28 81.5ZM28 27.5C22.7533 27.5 18.5 31.7533 18.5 37V43C18.5 48.2467 22.7533 52.5 28 52.5H36C40.6944 52.5 44.5 56.3056 44.5 61V67C44.5 72.2466 48.7533 76.5 54 76.5H55C59.6944 76.5 63.5 80.3056 63.5 85V91C63.5 96.2466 67.7534 100.5 73 100.5H100C105.247 100.5 109.5 96.2466 109.5 91V85C109.5 79.7534 105.247 75.5 100 75.5H91.5C86.8056 75.5 83 71.6944 83 67V61C83 55.7534 78.7466 51.5 73.5 51.5H73C68.3056 51.5 64.5 47.6944 64.5 43V37C64.5 31.7533 60.2466 27.5 55 27.5H28ZM94.6572 27.5C90.7731 27.5 88.7678 32.0485 91.2236 34.9102L91.4746 35.1816L101.818 45.5254C104.653 48.3597 109.5 46.3517 109.5 42.3428V32C109.5 29.5147 107.485 27.5 105 27.5H94.6572Z" fill="url(#paint0_linear_450_529)" stroke="#4E5FFF"/>
</g>
</g>
<defs>
<linearGradient id="paint0_linear_450_529" x1="64" y1="0" x2="64" y2="128" gradientUnits="userSpaceOnUse">
<stop stop-color="#6775FF"/>
<stop offset="1" stop-color="#4E5FFF"/>
</linearGradient>
<clipPath id="clip0_450_529">
<rect width="128" height="128" fill="white"/>
</clipPath>
<clipPath id="clip1_450_529">
<rect width="128" height="128" fill="white"/>
</clipPath>
</defs>
</svg>
