<svg width="32" height="32" viewBox="0 0 32 32" fill="none" xmlns="http://www.w3.org/2000/svg">
<g clip-path="url(#clip0_450_537)">
<g clip-path="url(#clip1_450_537)">
<path d="M6 0.5H26C29.0376 0.5 31.5 2.96243 31.5 6V26C31.5 29.0376 29.0376 31.5 26 31.5H6C2.96243 31.5 0.5 29.0376 0.5 26V6C0.5 2.96243 2.96243 0.5 6 0.5ZM7 20C5.48122 20 4.25 21.2312 4.25 22.75C4.25 24.2688 5.48122 25.5 7 25.5C8.51878 25.5 9.75 24.2688 9.75 22.75C9.75 21.2312 8.51878 20 7 20ZM7 6.5C5.48122 6.5 4.25 7.73122 4.25 9.25V10.75C4.25 12.2688 5.48122 13.5 7 13.5H9C9.96649 13.5 10.75 14.2835 10.75 15.25V16.75C10.75 18.2688 11.9812 19.5 13.5 19.5H13.75C14.7165 19.5 15.5 20.2835 15.5 21.25V22.75C15.5 24.2688 16.7312 25.5 18.25 25.5H25C26.5188 25.5 27.75 24.2688 27.75 22.75V21.25C27.75 19.7312 26.5188 18.5 25 18.5H22.875C21.9085 18.5 21.125 17.7165 21.125 16.75V15.25C21.125 13.7312 19.8938 12.5 18.375 12.5H18.25C17.2835 12.5 16.5 11.7165 16.5 10.75V9.25C16.5 7.73122 15.2688 6.5 13.75 6.5H7ZM23.6641 6.5C22.3697 6.50015 21.7014 8.01588 22.5195 8.96973L22.6035 9.06055L25.1895 11.6465C26.1344 12.5913 27.7499 11.9222 27.75 10.5859V8C27.75 7.17156 27.0784 6.5 26.25 6.5H23.6641Z" fill="url(#paint0_linear_450_537)" stroke="#05AD59"/>
</g>
</g>
<defs>
<linearGradient id="paint0_linear_450_537" x1="16" y1="0" x2="16" y2="32" gradientUnits="userSpaceOnUse">
<stop stop-color="#06DF73"/>
<stop offset="1" stop-color="#05AD59"/>
</linearGradient>
<clipPath id="clip0_450_537">
<rect width="32" height="32" fill="white"/>
</clipPath>
<clipPath id="clip1_450_537">
<rect width="32" height="32" fill="white"/>
</clipPath>
</defs>
</svg>
