<svg width="64" height="64" viewBox="0 0 64 64" fill="none" xmlns="http://www.w3.org/2000/svg">
<g clip-path="url(#clip0_450_533)">
<g clip-path="url(#clip1_450_533)">
<path d="M12 0.5H52C58.3514 0.5 63.5 5.64872 63.5 12V52C63.5 58.3514 58.3514 63.5 52 63.5H12C5.64872 63.5 0.5 58.3514 0.5 52V12C0.5 5.64872 5.64872 0.5 12 0.5ZM14 40.5C11.2386 40.5 9 42.7386 9 45.5C9 48.2614 11.2386 50.5 14 50.5C16.7614 50.5 19 48.2614 19 45.5C19 42.7386 16.7614 40.5 14 40.5ZM14 13.5C11.2386 13.5 9 15.7386 9 18.5V21.5C9 24.2614 11.2386 26.5 14 26.5H18C20.2091 26.5 22 28.2909 22 30.5V33.5C22 36.2614 24.2386 38.5 27 38.5H27.5C29.7091 38.5 31.5 40.2909 31.5 42.5V45.5C31.5 48.2614 33.7386 50.5 36.5 50.5H50C52.7614 50.5 55 48.2614 55 45.5V42.5C55 39.7386 52.7614 37.5 50 37.5H45.75C43.5409 37.5 41.75 35.7091 41.75 33.5V30.5C41.75 27.7386 39.5114 25.5 36.75 25.5H36.5C34.2909 25.5 32.5 23.7091 32.5 21.5V18.5C32.5 15.7386 30.2614 13.5 27.5 13.5H14ZM47.3281 13.5C45.1705 13.5003 44.0564 16.0275 45.4209 17.6172L45.5605 17.7676L50.7324 22.9395C52.3073 24.514 54.9998 23.3989 55 21.1719V16C55 14.6193 53.8806 13.5 52.5 13.5H47.3281Z" fill="url(#paint0_linear_450_533)" stroke="#05AD59"/>
</g>
</g>
<defs>
<linearGradient id="paint0_linear_450_533" x1="32" y1="0" x2="32" y2="64" gradientUnits="userSpaceOnUse">
<stop stop-color="#06DF73"/>
<stop offset="1" stop-color="#05AD59"/>
</linearGradient>
<clipPath id="clip0_450_533">
<rect width="64" height="64" fill="white"/>
</clipPath>
<clipPath id="clip1_450_533">
<rect width="64" height="64" fill="white"/>
</clipPath>
</defs>
</svg>
